 <?xml version="1.0" encoding="UTF-8"?>
<svg id="Calque_2" data-name="Calque 2" xmlns="http://www.w3.org/2000/svg" viewBox="0 0 1234 1298.18">
  <g id="Calque_2-2" data-name="Calque 2">
    <g id="Calque_1-2" data-name="Calque 1-2">
      <rect x="3.5" y="3.5" width="1227" height="1291.18" rx="202.35" ry="202.35" style="fill: #1d1d1b; stroke: #1d1d1b; stroke-miterlimit: 10; stroke-width: 7px;"/>
      <g>
        <path d="M253.22,667.68c28.66,9.9,55.18,19.1,81.72,28.21,35.8,12.29,71.39,11.37,106.88-1.53,45.28-16.46,90.94-31.93,135.84-49.37,28.3-11,54.98-10.84,83.42-.25,47.25,17.6,95.42,32.69,142.96,49.53,38.66,13.69,76.55,12.6,114.6-2.16,22.01-8.54,44.46-15.95,70.21-25.11-11.25,21.64-13.21,44.99-42.52,48.91-29.06,3.89-57.38,15.21-86.41,16.93-22.38,1.33-46.01-4.98-67.89-11.73-48.18-14.88-95.76-31.77-143.28-48.72-19.4-6.92-37.43-6.94-56.87.4-46.35,17.49-93.38,33.19-139.87,50.34-41.95,15.48-83.7,14.29-125.79,1.2-14.31-4.45-28.67-8.79-43.21-12.38-9.15-2.25-15.51-6.14-18.41-15.78-2.72-9.05-6.95-17.64-11.36-28.49h-.02Z" style="fill: #fff; stroke-width: 0px;"/>
        <path d="M450.36,571.53c-15.65.49-28.35-11.58-28.76-27.31-.36-13.99,7.94-22.92,21.43-23.05,15.8-.15,29.48,12.34,29.59,27.02.1,12.72-9.66,22.95-22.26,23.35h0Z" style="fill: #fff; stroke-width: 0px;"/>
        <path d="M169.6,443.18c57.28,18.12,112.46,35.58,167.35,52.94-4.06,58.3,16.1,93.36,58.32,102.91,36.18,8.19,70.41-12.48,86.55-52.27,18.58-2.38,21.59.38,29.19,17.38,3.78,8.46,10.03,19.05,17.68,21.91,18.67,6.97,35.47-10.98,28.06-30.1-11.63-30.01-27.01-56.58-61.88-67.16-82.78-25.13-165-52.14-247.44-78.39-4.51-1.44-9.03-2.83-13.46-5.4,30.23-5.33,60.25-12.63,90.84-2.09,59.07,20.34,118.56,39.55,177.16,61.17,77.13,28.45,153.26,26.56,230.15-.62,62.08-21.94,124.55-42.81,187.3-62.77,27.29-8.68,54.97-1.08,82.23,4.43-65.49,21.02-130.99,42-196.46,63.07-25.16,8.1-50.3,16.25-75.37,24.64-30.88,10.33-43.53,36.46-52.8,64.17-4.9,14.64,2.61,26.42,14.92,30.03,13.71,4.02,25.9-1.45,30.14-17.07,4.73-17.44,16.39-24.88,32.79-29.66,9.56,38.06,33.76,59.89,73.39,60,31.7.09,57.02-20.31,67.33-50.6-6.28.86-12.28,2.19-18.32,2.4-14.31.49-24.5-7.01-28.04-19.94-3.11-11.4,3.64-25.21,15.42-31.1,2.99-1.5,6.23-3.28,9.43-3.47,53.81-3.05,101.01-29.42,151.83-42.94,11.93-3.17,23.71-6.91,37.28-10.89,4.05,52.81,3.78,103.09-24.49,148.1-7.29,11.61-19.23,22.93-31.66,28.19-40.65,17.2-82.38,31.92-123.98,46.77-15.81,5.64-31.85,3.75-48.08-1.61-57.51-19.01-115.3-37.21-173.03-55.55-31.82-10.11-63.58-8.75-95.1,1.57-52.06,17.04-104.3,33.57-156.05,51.51-26.9,9.32-52.35,9.64-79.28-2.73-26.14-12-53.47-21.09-81.13-28.97-39.43-11.23-61.01-37.73-72.18-74.65-10.91-36.08-11.62-72.89-8.64-113.22h.03Z" style="fill: #fff; stroke-width: 0px;"/>
      </g>
      <path d="M973.2,125.64c20.52,3.29,40,9.18,58.4,18.26,71.17,35.12,112.35,92.53,125.41,170.4,1.41,8.39,1.01,17.13,1.01,25.7.05,162.51,0,325.02.04,487.53.02,56.71-20.93,104.99-58.57,146.6-43.82,48.44-99.44,70.07-163.74,70.49-85.85.56-171.71.37-257.56.25-5.86,0-11.48,2.35-15.59,6.53-49.32,50.22-106.7,89.39-168.96,121.59-60.29,31.18-122.96,56.45-188.74,73.66-2.96.78-5.91,1.62-8.91,2.25-7.07,1.51-13.61.84-17.97-5.76-4.46-6.76-4.95-13.94.01-20.59,4.38-5.87,9.37-11.3,14.2-16.82,37.13-42.47,69.02-88.3,90.26-140.93,2.38-5.91,4.29-12.01,7.02-19.72-4.32,0-7.47.04-10.61,0-34.63-.46-69.4.91-103.85-1.78-70.34-5.5-124.65-39.67-163.44-98.4-23.6-35.73-35.74-77.8-35.7-120.62.13-161.78-.08-323.56.09-485.34.11-103.27,80.63-197.18,182.32-213.16.82-.13,1.72.2,3.69.45-1.48,7.91-2.89,15.59-4.36,23.27-2.54,7.5-4.11,15.21-4.39,22.81-.04,1.11-.11,2.22-.29,3.32-1.81,11-5.61,13.28-14.32,16.79-59.79,24.12-97.73,79.28-97.9,143.71-.43,167.11-.51,334.22-.23,501.33.11,67.23,55.68,130.26,123.68,141.34,13.25,2.16,26.8,3.32,40.22,3.44,49.06.43,98.12.21,147.18.24h11c.99,55.39-13.65,105.14-44.59,151.51,3.21-1.1,5.48-1.65,7.55-2.63,70.97-33.75,137.95-73.79,193.02-130.6,13.83-14.27,27.19-18.75,46.11-18.59,91.06.74,182.14.78,273.19-.13,72-.72,132.52-45.77,150.95-111.4,3.84-13.69,5.69-28.39,5.72-42.63.3-162.51.16-325.02-.07-487.53-.09-61.75-27.77-107.9-80.62-139.12-7.85-4.64-16.8-7.36-24.94-11.56-2.51-1.29-5.26-4.29-5.77-6.91-3.56-18.55-6.55-37.2-9.97-57.23l.02-.02Z" style="fill: #fff; stroke-width: 0px;"/>
      <path d="M421.24,89.87c11.68,33.58,34.56,52.63,69.59,63.32-34.88,11.51-57.98,31.87-69.46,64.36-11.82-33.01-35.05-53.26-69.03-63.89,32.67-10.65,56.92-29.48,68.9-63.79Z" style="fill: #fff; stroke-width: 0px;"/>
      <path d="M803.56,89.87c11.68,33.58,34.56,52.63,69.59,63.32-34.88,11.51-57.98,31.87-69.46,64.36-11.82-33.01-35.05-53.26-69.03-63.89,32.67-10.65,56.92-29.48,68.9-63.79h0Z" style="fill: #fff; stroke-width: 0px;"/>
      <path d="M379.97,881.34c18.79,6.49,36.16,12.52,53.56,18.49,23.46,8.06,46.79,7.45,70.05-1,29.68-10.79,59.61-20.92,89.03-32.36,18.55-7.21,36.03-7.1,54.67-.16,30.97,11.54,62.54,21.43,93.7,32.46,25.34,8.98,50.17,8.26,75.11-1.42,14.43-5.59,29.14-10.45,46.01-16.46-7.37,14.19-8.66,29.49-27.87,32.06-19.05,2.55-37.61,9.97-56.63,11.1-14.67.87-30.15-3.26-44.5-7.69-31.58-9.75-62.76-20.83-93.91-31.93-12.72-4.53-24.53-4.55-37.27.26-30.38,11.46-61.2,21.75-91.67,32.99-27.5,10.15-54.86,9.36-82.45.79-9.38-2.91-18.79-5.76-28.32-8.11-5.99-1.48-10.17-4.03-12.07-10.34-1.79-5.93-4.56-11.56-7.44-18.68" style="fill: #fff; stroke-width: 0px;"/>
      <path d="M331.56,819.78c22.56,7.79,43.42,15.03,64.31,22.2,28.17,9.68,56.18,8.95,84.12-1.21,35.64-12.96,71.57-25.13,106.91-38.86,22.28-8.66,43.27-8.53,65.65-.19,37.18,13.85,75.1,25.73,112.51,38.98,30.42,10.78,60.24,9.91,90.19-1.7,17.32-6.72,34.99-12.55,55.25-19.76-8.85,17.03-10.4,35.41-33.47,38.49-22.87,3.06-45.16,11.97-68,13.33-17.61,1.04-36.21-3.92-53.43-9.24-37.92-11.71-75.37-25.01-112.76-38.34-15.27-5.44-29.46-5.46-44.76.31-36.48,13.77-73.49,26.12-110.08,39.62-33.02,12.18-65.88,11.24-99,.95-11.26-3.5-22.57-6.92-34.01-9.74-7.2-1.77-12.21-4.83-14.49-12.42-2.14-7.12-5.47-13.88-8.94-22.43" style="fill: #fff; stroke-width: 0px;"/>
      <path d="M296.94,749.81c25.26,8.72,48.62,16.83,72,24.86,31.54,10.83,62.9,10.02,94.18-1.35,39.9-14.51,80.13-28.13,119.69-43.5,24.94-9.69,48.44-9.55,73.5-.22,41.63,15.51,84.08,28.8,125.97,43.64,34.06,12.07,67.45,11.1,100.98-1.91,19.39-7.52,39.17-14.05,61.86-22.13-9.91,19.07-11.64,39.64-37.47,43.1-25.61,3.42-50.56,13.4-76.14,14.92-19.72,1.17-40.54-4.38-59.83-10.34-42.46-13.11-84.38-28-126.25-42.93-17.1-6.1-32.98-6.11-50.11.35-40.85,15.41-82.28,29.24-123.25,44.36-36.97,13.64-73.76,12.59-110.84,1.06-12.61-3.92-25.26-7.75-38.07-10.91-8.06-1.99-13.67-5.41-16.23-13.9-2.4-7.97-6.13-15.54-10.01-25.11" style="fill: #fff; stroke-width: 0px;"/>
      <path d="M752.8,362.52c50.3-14.13,160.49-104.94,230.37-179.65,15.47,13.91,60.61,25.25,76.95,39.93-8.34,8.58,62.53,46.89,54.86,54.28-68.24,65.8-268.5,112.07-356.89,146.67-46.74,18.3-95.2,30.7-145.97,29.24-43.83-1.26-86.1-11.39-126.96-26.85-96.73-36.59-275.36-87.76-348.49-161.09-3.7-3.71,41.32-37.34,36.95-42.24,10.72-9.9,51.03-49.27,61.94-59.35,51.87,53.93,123.36,156.35,191.99,186.22-100.56-14.4-148.84-121.92-195.85-177.8,2.63-1.93,19.34-32.94,22.03-34.91,37.99,43.3,128.26,157.99,175.29,189.01-67.31-23.11-145.27-139.27-180.92-180.65,1.84-1.5,30.63,12.94,31.97,11.97,1.21-.87,6.16-3.78,7.49-4.61,46.65,47.52,105.97,128.13,167.62,155.65-93.28-9.11-205.11-111.74-243.81-163.64,7.57-3.74,45.6-15.96,50.64-18.45,16.05,20.94,87.29,83.5,116.01,108.35,56.66,47.59,123.09,91.2,200.29,105.35,55.47,10.16,109.83-.68,160.29-24.66,67.26-31.97,180.11-68.29,218.28-131.86.5-.84,15.43-56.49,16.31-57.77,2.71,1.3,15.77,29.68,18.38,30.95,2.43,1.19,19.88,3.75,22.75,5.17-50.05,73.51-190.46,151.25-330.46,173.9,113.27-42.78,231.62-139.03,289.33-210.02,4.63,2.68,33.46,51.77,38.48,54.68-27.56,34.99-108.8,99.92-142.72,127.26-33.75,27.2-68.05,55.23-116.16,54.95v-.03ZM761.21,392.86c-105.87,36.86-210.22,31.61-313.39-10.34,86.61,63.97,223.97,73.2,313.39,10.34Z" style="fill: #fff; stroke-width: 0px;"/>
      <path d="M613.42,89.87c11.68,33.58,34.56,52.63,69.59,63.32-34.88,11.51-57.98,31.87-69.46,64.36-11.82-33.01-35.05-53.26-69.03-63.89,32.67-10.65,56.92-29.48,68.9-63.79h0Z" style="fill: #fff; stroke-width: 0px;"/>
    </g>
  </g>
</svg>